<mxfile host="app.diagrams.net" modified="2023-02-23T06:24:52.869Z" agent="5.0 (Windows NT 10.0; Win64; x64) AppleWebKit/537.36 (KHTML, like Gecko) Chrome/110.0.0.0 Safari/537.36 Edg/110.0.1587.50" etag="zumORLmF2gGbUL951ysD" version="20.7.2" type="github">
  <diagram id="C5RBs43oDa-KdzZeNtuy" name="Page-1">
    <mxGraphModel dx="2214" dy="764" grid="1" gridSize="10" guides="1" tooltips="1" connect="1" arrows="1" fold="1" page="1" pageScale="1" pageWidth="827" pageHeight="1169" math="0" shadow="0">
      <root>
        <mxCell id="WIyWlLk6GJQsqaUBKTNV-0" />
        <mxCell id="WIyWlLk6GJQsqaUBKTNV-1" parent="WIyWlLk6GJQsqaUBKTNV-0" />
        <mxCell id="7_pLLy_F_f454jdGCswt-0" value="GDS" style="whiteSpace=wrap;html=1;aspect=fixed;" vertex="1" parent="WIyWlLk6GJQsqaUBKTNV-1">
          <mxGeometry x="710" y="260" width="80" height="80" as="geometry" />
        </mxCell>
        <mxCell id="7_pLLy_F_f454jdGCswt-1" value="" style="endArrow=classic;html=1;rounded=0;exitX=0;exitY=0.5;exitDx=0;exitDy=0;" edge="1" parent="WIyWlLk6GJQsqaUBKTNV-1" source="7_pLLy_F_f454jdGCswt-0">
          <mxGeometry width="50" height="50" relative="1" as="geometry">
            <mxPoint x="390" y="300" as="sourcePoint" />
            <mxPoint x="630" y="300" as="targetPoint" />
          </mxGeometry>
        </mxCell>
        <mxCell id="7_pLLy_F_f454jdGCswt-5" value="" style="edgeStyle=orthogonalEdgeStyle;rounded=0;orthogonalLoop=1;jettySize=auto;html=1;" edge="1" parent="WIyWlLk6GJQsqaUBKTNV-1" source="7_pLLy_F_f454jdGCswt-2" target="7_pLLy_F_f454jdGCswt-4">
          <mxGeometry relative="1" as="geometry" />
        </mxCell>
        <mxCell id="7_pLLy_F_f454jdGCswt-9" style="edgeStyle=orthogonalEdgeStyle;rounded=0;orthogonalLoop=1;jettySize=auto;html=1;exitX=0.5;exitY=1;exitDx=0;exitDy=0;" edge="1" parent="WIyWlLk6GJQsqaUBKTNV-1" source="7_pLLy_F_f454jdGCswt-2" target="7_pLLy_F_f454jdGCswt-8">
          <mxGeometry relative="1" as="geometry" />
        </mxCell>
        <mxCell id="7_pLLy_F_f454jdGCswt-2" value="行程方案" style="whiteSpace=wrap;html=1;aspect=fixed;" vertex="1" parent="WIyWlLk6GJQsqaUBKTNV-1">
          <mxGeometry x="550" y="260" width="80" height="80" as="geometry" />
        </mxCell>
        <mxCell id="7_pLLy_F_f454jdGCswt-11" style="edgeStyle=orthogonalEdgeStyle;rounded=0;orthogonalLoop=1;jettySize=auto;html=1;" edge="1" parent="WIyWlLk6GJQsqaUBKTNV-1" source="7_pLLy_F_f454jdGCswt-4" target="7_pLLy_F_f454jdGCswt-10">
          <mxGeometry relative="1" as="geometry" />
        </mxCell>
        <mxCell id="7_pLLy_F_f454jdGCswt-13" style="edgeStyle=orthogonalEdgeStyle;rounded=0;orthogonalLoop=1;jettySize=auto;html=1;" edge="1" parent="WIyWlLk6GJQsqaUBKTNV-1" source="7_pLLy_F_f454jdGCswt-4" target="7_pLLy_F_f454jdGCswt-12">
          <mxGeometry relative="1" as="geometry">
            <Array as="points">
              <mxPoint x="330" y="300" />
            </Array>
          </mxGeometry>
        </mxCell>
        <mxCell id="7_pLLy_F_f454jdGCswt-15" value="" style="edgeStyle=orthogonalEdgeStyle;rounded=0;orthogonalLoop=1;jettySize=auto;html=1;" edge="1" parent="WIyWlLk6GJQsqaUBKTNV-1" source="7_pLLy_F_f454jdGCswt-4" target="7_pLLy_F_f454jdGCswt-14">
          <mxGeometry relative="1" as="geometry">
            <Array as="points">
              <mxPoint x="330" y="300" />
              <mxPoint x="330" y="380" />
            </Array>
          </mxGeometry>
        </mxCell>
        <mxCell id="7_pLLy_F_f454jdGCswt-4" value="基础数据处理" style="whiteSpace=wrap;html=1;" vertex="1" parent="WIyWlLk6GJQsqaUBKTNV-1">
          <mxGeometry x="360" y="270" width="120" height="60" as="geometry" />
        </mxCell>
        <mxCell id="7_pLLy_F_f454jdGCswt-8" value="cache" style="whiteSpace=wrap;html=1;aspect=fixed;" vertex="1" parent="WIyWlLk6GJQsqaUBKTNV-1">
          <mxGeometry x="550" y="360" width="80" height="80" as="geometry" />
        </mxCell>
        <mxCell id="7_pLLy_F_f454jdGCswt-21" style="edgeStyle=orthogonalEdgeStyle;rounded=0;orthogonalLoop=1;jettySize=auto;html=1;exitX=0;exitY=0.5;exitDx=0;exitDy=0;entryX=1;entryY=0.5;entryDx=0;entryDy=0;" edge="1" parent="WIyWlLk6GJQsqaUBKTNV-1" source="7_pLLy_F_f454jdGCswt-10" target="7_pLLy_F_f454jdGCswt-16">
          <mxGeometry relative="1" as="geometry" />
        </mxCell>
        <mxCell id="7_pLLy_F_f454jdGCswt-10" value="韩铁" style="whiteSpace=wrap;html=1;" vertex="1" parent="WIyWlLk6GJQsqaUBKTNV-1">
          <mxGeometry x="120" y="270" width="120" height="60" as="geometry" />
        </mxCell>
        <mxCell id="7_pLLy_F_f454jdGCswt-17" style="edgeStyle=orthogonalEdgeStyle;rounded=0;orthogonalLoop=1;jettySize=auto;html=1;exitX=0;exitY=0.75;exitDx=0;exitDy=0;entryX=1;entryY=0.5;entryDx=0;entryDy=0;" edge="1" parent="WIyWlLk6GJQsqaUBKTNV-1" source="7_pLLy_F_f454jdGCswt-12" target="7_pLLy_F_f454jdGCswt-16">
          <mxGeometry relative="1" as="geometry" />
        </mxCell>
        <mxCell id="7_pLLy_F_f454jdGCswt-12" value="英铁" style="whiteSpace=wrap;html=1;" vertex="1" parent="WIyWlLk6GJQsqaUBKTNV-1">
          <mxGeometry x="120" y="180" width="120" height="60" as="geometry" />
        </mxCell>
        <mxCell id="7_pLLy_F_f454jdGCswt-24" style="edgeStyle=orthogonalEdgeStyle;rounded=0;orthogonalLoop=1;jettySize=auto;html=1;exitX=0;exitY=0.5;exitDx=0;exitDy=0;entryX=1;entryY=0.5;entryDx=0;entryDy=0;" edge="1" parent="WIyWlLk6GJQsqaUBKTNV-1" source="7_pLLy_F_f454jdGCswt-14" target="7_pLLy_F_f454jdGCswt-16">
          <mxGeometry relative="1" as="geometry" />
        </mxCell>
        <mxCell id="7_pLLy_F_f454jdGCswt-14" value="欧铁" style="whiteSpace=wrap;html=1;" vertex="1" parent="WIyWlLk6GJQsqaUBKTNV-1">
          <mxGeometry x="120" y="350" width="120" height="60" as="geometry" />
        </mxCell>
        <mxCell id="7_pLLy_F_f454jdGCswt-16" value="搜索" style="whiteSpace=wrap;html=1;" vertex="1" parent="WIyWlLk6GJQsqaUBKTNV-1">
          <mxGeometry x="-60" y="270" width="120" height="60" as="geometry" />
        </mxCell>
        <mxCell id="7_pLLy_F_f454jdGCswt-27" style="edgeStyle=orthogonalEdgeStyle;rounded=0;orthogonalLoop=1;jettySize=auto;html=1;exitX=1;exitY=0.5;exitDx=0;exitDy=0;" edge="1" parent="WIyWlLk6GJQsqaUBKTNV-1" source="7_pLLy_F_f454jdGCswt-25" target="7_pLLy_F_f454jdGCswt-26">
          <mxGeometry relative="1" as="geometry" />
        </mxCell>
        <mxCell id="7_pLLy_F_f454jdGCswt-25" value="下单" style="whiteSpace=wrap;html=1;aspect=fixed;" vertex="1" parent="WIyWlLk6GJQsqaUBKTNV-1">
          <mxGeometry x="-60" y="560" width="80" height="80" as="geometry" />
        </mxCell>
        <mxCell id="7_pLLy_F_f454jdGCswt-32" style="edgeStyle=orthogonalEdgeStyle;rounded=0;orthogonalLoop=1;jettySize=auto;html=1;exitX=1;exitY=0.5;exitDx=0;exitDy=0;" edge="1" parent="WIyWlLk6GJQsqaUBKTNV-1" source="7_pLLy_F_f454jdGCswt-26" target="7_pLLy_F_f454jdGCswt-31">
          <mxGeometry relative="1" as="geometry" />
        </mxCell>
        <mxCell id="7_pLLy_F_f454jdGCswt-26" value="行程方案" style="whiteSpace=wrap;html=1;aspect=fixed;" vertex="1" parent="WIyWlLk6GJQsqaUBKTNV-1">
          <mxGeometry x="110" y="560" width="80" height="80" as="geometry" />
        </mxCell>
        <mxCell id="7_pLLy_F_f454jdGCswt-30" style="edgeStyle=orthogonalEdgeStyle;rounded=0;orthogonalLoop=1;jettySize=auto;html=1;exitX=0.5;exitY=1;exitDx=0;exitDy=0;entryX=0.5;entryY=0;entryDx=0;entryDy=0;" edge="1" parent="WIyWlLk6GJQsqaUBKTNV-1" source="7_pLLy_F_f454jdGCswt-29" target="7_pLLy_F_f454jdGCswt-26">
          <mxGeometry relative="1" as="geometry" />
        </mxCell>
        <mxCell id="7_pLLy_F_f454jdGCswt-29" value="cache" style="whiteSpace=wrap;html=1;aspect=fixed;" vertex="1" parent="WIyWlLk6GJQsqaUBKTNV-1">
          <mxGeometry x="110" y="460" width="70" height="70" as="geometry" />
        </mxCell>
        <mxCell id="7_pLLy_F_f454jdGCswt-34" style="edgeStyle=orthogonalEdgeStyle;rounded=0;orthogonalLoop=1;jettySize=auto;html=1;exitX=1;exitY=0.5;exitDx=0;exitDy=0;" edge="1" parent="WIyWlLk6GJQsqaUBKTNV-1" source="7_pLLy_F_f454jdGCswt-31" target="7_pLLy_F_f454jdGCswt-33">
          <mxGeometry relative="1" as="geometry" />
        </mxCell>
        <mxCell id="7_pLLy_F_f454jdGCswt-31" value="价格计算，逻辑处理" style="whiteSpace=wrap;html=1;aspect=fixed;" vertex="1" parent="WIyWlLk6GJQsqaUBKTNV-1">
          <mxGeometry x="230" y="560" width="80" height="80" as="geometry" />
        </mxCell>
        <mxCell id="7_pLLy_F_f454jdGCswt-33" value="orderCore" style="whiteSpace=wrap;html=1;aspect=fixed;" vertex="1" parent="WIyWlLk6GJQsqaUBKTNV-1">
          <mxGeometry x="450" y="560" width="80" height="80" as="geometry" />
        </mxCell>
      </root>
    </mxGraphModel>
  </diagram>
</mxfile>
